{
  "accessors": [
    {
      "bufferView": 2,
      "componentType": 5126,
      "count": 2907,
      "max": [
        28.392852783203125,
        28.392850875854492,
        102.60179138183594
      ],
      "min": [
        -28.392852783203125,
        -28.392852783203125,
        1.2700542211532593
      ],
      "type": "VEC3"
    },
    {
      "bufferView": 2,
      "byteOffset": 34884,
      "componentType": 5126,
      "count": 2907,
      "max": [
        0.9999996423721313,
        0.9999995827674866,
        0.9999918937683105
      ],
      "min": [
        -0.9999995827674866,
        -0.9999996423721313,
        -1.0
      ],
      "type": "VEC3"
    },
    {
      "bufferView": 1,
      "componentType": 5126,
      "count": 2907,
      "max": [
        1.9117096662521362,
        0.9414575099945068
      ],
      "min": [
        -0.09999002516269684,
        0.03999999910593033
      ],
      "type": "VEC2"
    },
    {
      "bufferView": 0,
      "componentType": 5125,
      "count": 16656,
      "type": "SCALAR"
    }
  ],
  "asset": {
    "extras": {
      "author": "riach (https://sketchfab.com/riach)",
      "license": "CC-BY-4.0 (http://creativecommons.org/licenses/by/4.0/)",
      "source": "https://sketchfab.com/3d-models/song-noir-chinese-shaped-vase-9a92326f9a24490e8751a59a23a35dec",
      "title": "Song Noir Chinese Shaped Vase"
    },
    "generator": "Sketchfab-12.65.0",
    "version": "2.0"
  },
  "bufferViews": [
    {
      "buffer": 0,
      "byteLength": 66624,
      "name": "floatBufferViews",
      "target": 34963
    },
    {
      "buffer": 0,
      "byteLength": 23256,
      "byteOffset": 66624,
      "byteStride": 8,
      "name": "floatBufferViews",
      "target": 34962
    },
    {
      "buffer": 0,
      "byteLength": 69768,
      "byteOffset": 89880,
      "byteStride": 12,
      "name": "floatBufferViews",
      "target": 34962
    }
  ],
  "buffers": [
    {
      "byteLength": 159648,
      "uri": "scene.bin"
    }
  ],
  "extensionsUsed": [
    "KHR_materials_clearcoat"
  ],
  "images": [
    {
      "uri": "textures/Material_43_baseColor.png"
    }
  ],
  "materials": [
    {
      "doubleSided": true,
      "extensions": {
        "KHR_materials_clearcoat": {
          "clearcoatFactor": 0.713090308811995,
          "clearcoatRoughnessFactor": 0.1050729924788258
        }
      },
      "name": "Material_43",
      "pbrMetallicRoughness": {
        "baseColorTexture": {
          "index": 0
        },
        "metallicFactor": 0.21451610941879626,
        "roughnessFactor": 0.03154241832807392
      }
    }
  ],
  "meshes": [
    {
      "name": "Cylinder006_Material #43_0",
      "primitives": [
        {
          "attributes": {
            "NORMAL": 1,
            "POSITION": 0,
            "TEXCOORD_0": 2
          },
          "indices": 3,
          "material": 0,
          "mode": 4
        }
      ]
    }
  ],
  "nodes": [
    {
      "children": [
        1
      ],
      "matrix": [
        0.005414361599832773,
        0.0,
        0.0,
        0.0,
        0.0,
        1.2022297823561286e-18,
        -0.005414361599832773,
        0.0,
        0.0,
        0.005414361599832773,
        1.2022297823561286e-18,
        0.0,
        0.0,
        0.0,
        0.0,
        1.0
      ],
      "name": "Sketchfab_model"
    },
    {
      "children": [
        2
      ],
      "matrix": [
        1.0,
        0.0,
        0.0,
        0.0,
        0.0,
        0.0,
        1.0,
        0.0,
        0.0,
        -1.0,
        0.0,
        0.0,
        0.0,
        0.0,
        0.0,
        1.0
      ],
      "name": "5d788d9b4ef94141ae1c90bb0f4c3e07.fbx"
    },
    {
      "children": [
        3
      ],
      "name": "RootNode"
    },
    {
      "children": [
        4
      ],
      "matrix": [
        1.0,
        0.0,
        0.0,
        0.0,
        0.0,
        2.220446049250313e-16,
        -1.0,
        0.0,
        0.0,
        1.0,
        2.220446049250313e-16,
        0.0,
        0.0,
        0.0,
        0.0,
        1.0
      ],
      "name": "Cylinder006"
    },
    {
      "mesh": 0,
      "name": "Cylinder006_Material #43_0"
    }
  ],
  "samplers": [
    {
      "magFilter": 9729,
      "minFilter": 9987,
      "wrapS": 10497,
      "wrapT": 10497
    }
  ],
  "scene": 0,
  "scenes": [
    {
      "name": "Sketchfab_Scene",
      "nodes": [
        0
      ]
    }
  ],
  "textures": [
    {
      "sampler": 0,
      "source": 0
    }
  ]
}
