{
  "accessors": [
    {
      "bufferView": 2,
      "componentType": 5126,
      "count": 13604,
      "max": [
        5.4383392333984375,
        -13.625604629516602,
        6.009795665740967
      ],
      "min": [
        -4.886656761169434,
        -31.8637638092041,
        -4.1469855308532715
      ],
      "type": "VEC3"
    },
    {
      "bufferView": 2,
      "byteOffset": 163248,
      "componentType": 5126,
      "count": 13604,
      "max": [
        0.9999970197677612,
        0.999849796295166,
        0.9999743700027466
      ],
      "min": [
        -0.9999931454658508,
        -0.9999975562095642,
        -0.9999932050704956
      ],
      "type": "VEC3"
    },
    {
      "bufferView": 1,
      "componentType": 5126,
      "count": 13604,
      "max": [
        0.9868952631950378,
        0.9957873821258545
      ],
      "min": [
        0.002113624708727002,
        0.10720980167388916
      ],
      "type": "VEC2"
    },
    {
      "bufferView": 0,
      "componentType": 5125,
      "count": 76548,
      "type": "SCALAR"
    },
    {
      "bufferView": 2,
      "byteOffset": 326496,
      "componentType": 5126,
      "count": 1114,
      "max": [
        5.49333381652832,
        -13.646416664123535,
        2.133007287979126
      ],
      "min": [
        -0.8656020164489746,
        -19.674396514892578,
        -1.8351943492889404
      ],
      "type": "VEC3"
    },
    {
      "bufferView": 2,
      "byteOffset": 339864,
      "componentType": 5126,
      "count": 1114,
      "max": [
        0.9998244047164917,
        0.9910261034965515,
        0.9973353743553162
      ],
      "min": [
        -0.999825656414032,
        -0.9144838452339172,
        -0.9979343414306641
      ],
      "type": "VEC3"
    },
    {
      "bufferView": 1,
      "byteOffset": 108832,
      "componentType": 5126,
      "count": 1114,
      "max": [
        0.8491442203521729,
        0.9959731698036194
      ],
      "min": [
        0.27736130356788635,
        0.5197115540504456
      ],
      "type": "VEC2"
    },
    {
      "bufferView": 0,
      "byteOffset": 306192,
      "componentType": 5125,
      "count": 5850,
      "type": "SCALAR"
    },
    {
      "bufferView": 2,
      "byteOffset": 353232,
      "componentType": 5126,
      "count": 190,
      "max": [
        3.121511459350586,
        -13.646004676818848,
        4.1115312576293945
      ],
      "min": [
        -2.7055931091308594,
        -13.821809768676758,
        -1.8290328979492188
      ],
      "type": "VEC3"
    },
    {
      "bufferView": 2,
      "byteOffset": 355512,
      "componentType": 5126,
      "count": 190,
      "max": [
        0.9374527931213379,
        0.9998591542243958,
        0.9607592225074768
      ],
      "min": [
        -0.5127771496772766,
        -0.9999827146530151,
        -0.8936717510223389
      ],
      "type": "VEC3"
    },
    {
      "bufferView": 1,
      "byteOffset": 117744,
      "componentType": 5126,
      "count": 190,
      "max": [
        0.9995005130767822,
        0.9906165599822998
      ],
      "min": [
        0.0004995167255401611,
        0.009383440017700195
      ],
      "type": "VEC2"
    },
    {
      "bufferView": 0,
      "byteOffset": 329592,
      "componentType": 5125,
      "count": 558,
      "type": "SCALAR"
    }
  ],
  "asset": {
    "extras": {
      "author": "mark.energy (https://sketchfab.com/mark.energy)",
      "license": "CC-BY-4.0 (http://creativecommons.org/licenses/by/4.0/)",
      "source": "https://sketchfab.com/3d-models/blue-and-white-porcelain-1bcb65b3a86d4dc0b09fafc4e9b6da4c",
      "title": "Blue And White Porcelain 青花瓷"
    },
    "generator": "Sketchfab-12.68.0",
    "version": "2.0"
  },
  "bufferViews": [
    {
      "buffer": 0,
      "byteLength": 331824,
      "name": "floatBufferViews",
      "target": 34963
    },
    {
      "buffer": 0,
      "byteLength": 119264,
      "byteOffset": 331824,
      "byteStride": 8,
      "name": "floatBufferViews",
      "target": 34962
    },
    {
      "buffer": 0,
      "byteLength": 357792,
      "byteOffset": 451088,
      "byteStride": 12,
      "name": "floatBufferViews",
      "target": 34962
    }
  ],
  "buffers": [
    {
      "byteLength": 808880,
      "uri": "scene.bin"
    }
  ],
  "extensionsUsed": [
    "KHR_materials_unlit"
  ],
  "images": [
    {
      "uri": "textures/Texture_0_baseColor.jpeg"
    },
    {
      "uri": "textures/Texture_1_baseColor.jpeg"
    },
    {
      "uri": "textures/material_baseColor.jpeg"
    }
  ],
  "materials": [
    {
      "doubleSided": true,
      "extensions": {
        "KHR_materials_unlit": {}
      },
      "name": "Texture_0",
      "pbrMetallicRoughness": {
        "baseColorTexture": {
          "index": 0
        },
        "metallicFactor": 0.0
      }
    },
    {
      "doubleSided": true,
      "extensions": {
        "KHR_materials_unlit": {}
      },
      "name": "Texture_1",
      "pbrMetallicRoughness": {
        "baseColorTexture": {
          "index": 1
        },
        "metallicFactor": 0.0
      }
    },
    {
      "doubleSided": true,
      "extensions": {
        "KHR_materials_unlit": {}
      },
      "name": "material",
      "pbrMetallicRoughness": {
        "baseColorTexture": {
          "index": 2
        },
        "metallicFactor": 0.0
      }
    }
  ],
  "meshes": [
    {
      "name": "Object_0",
      "primitives": [
        {
          "attributes": {
            "NORMAL": 1,
            "POSITION": 0,
            "TEXCOORD_0": 2
          },
          "indices": 3,
          "material": 0,
          "mode": 4
        }
      ]
    },
    {
      "name": "Object_1",
      "primitives": [
        {
          "attributes": {
            "NORMAL": 5,
            "POSITION": 4,
            "TEXCOORD_0": 6
          },
          "indices": 7,
          "material": 1,
          "mode": 4
        }
      ]
    },
    {
      "name": "Object_2",
      "primitives": [
        {
          "attributes": {
            "NORMAL": 9,
            "POSITION": 8,
            "TEXCOORD_0": 10
          },
          "indices": 11,
          "material": 2,
          "mode": 4
        }
      ]
    }
  ],
  "nodes": [
    {
      "children": [
        1
      ],
      "matrix": [
        1.0,
        0.0,
        0.0,
        0.0,
        0.0,
        2.220446049250313e-16,
        -1.0,
        0.0,
        0.0,
        1.0,
        2.220446049250313e-16,
        0.0,
        0.0,
        0.0,
        0.0,
        1.0
      ],
      "name": "Sketchfab_model"
    },
    {
      "children": [
        2
      ],
      "matrix": [
        1.0,
        0.0,
        0.0,
        0.0,
        0.0,
        0.0,
        1.0,
        0.0,
        0.0,
        -1.0,
        0.0,
        0.0,
        0.0,
        0.0,
        0.0,
        1.0
      ],
      "name": "Blue and White Porcelain.FBX"
    },
    {
      "children": [
        3
      ],
      "name": "RootNode"
    },
    {
      "children": [
        4
      ],
      "matrix": [
        1.0,
        0.0,
        0.0,
        0.0,
        0.0,
        2.220446049250313e-16,
        -1.0,
        0.0,
        0.0,
        1.0,
        2.220446049250313e-16,
        0.0,
        0.0,
        0.0,
        0.0,
        1.0
      ],
      "name": "blue and white porcelain M"
    },
    {
      "children": [
        5,
        6,
        7
      ],
      "matrix": [
        0.9998500334799768,
        9.313225360913454e-10,
        0.017317925686673643,
        0.0,
        0.017317925686673615,
        -1.3314192352788176e-07,
        -0.9998500334799679,
        0.0,
        1.374559068545061e-09,
        0.9999999999999911,
        -1.3313808527141143e-07,
        0.0,
        0.0,
        0.0,
        0.0,
        1.0
      ],
      "name": "Object_4"
    },
    {
      "mesh": 0,
      "name": "Object_5"
    },
    {
      "mesh": 1,
      "name": "Object_6"
    },
    {
      "mesh": 2,
      "name": "Object_7"
    }
  ],
  "samplers": [
    {
      "magFilter": 9729,
      "minFilter": 9987,
      "wrapS": 10497,
      "wrapT": 10497
    }
  ],
  "scene": 0,
  "scenes": [
    {
      "name": "Sketchfab_Scene",
      "nodes": [
        0
      ]
    }
  ],
  "textures": [
    {
      "sampler": 0,
      "source": 0
    },
    {
      "sampler": 0,
      "source": 1
    },
    {
      "sampler": 0,
      "source": 2
    }
  ]
}
